<svg id="图层_1" data-name="图层 1" xmlns="http://www.w3.org/2000/svg" viewBox="0 0 1919.45 692.14">
  <defs>
    <style>
      .cls-1 {
        fill: #fff;
      }
    </style>
  </defs>
  <g>
    <g>
      <polygon class="cls-1" points="448.42 539.86 323.79 692.14 199.15 539.86 262.08 440.93 296.71 495.37 269.07 538.78 323.79 622.95 378.51 538.78 292.04 403.78 323.79 278.79 351.36 387.29 448.42 539.86"/>
      <polygon class="cls-1" points="503.79 346.04 434.45 452.67 392.98 387.51 420.7 332.14 323.79 152.14 226.87 332.14 254.59 387.51 213.12 452.67 143.86 346.18 323.86 0 503.79 346.04"/>
      <polygon class="cls-1" points="195.27 480.61 195.27 480.68 157.61 539.86 0 622.88 0.14 622.59 143.78 401.4 195.27 480.61"/>
      <polygon class="cls-1" points="647.79 622.95 489.96 539.86 452.31 480.68 452.31 480.61 503.79 401.4 647.79 622.95"/>
    </g>
    <g>
      <path class="cls-1" d="M819.63,242c138,20.89,88.5,120.39,36.83,82.46-5-28-24.19-59.37-41.23-78.61Zm144.58-6.6c-15.4,58.82-44,168.77-50,194.06-3.3,17-6,35.18-6,48.92,1.1,29.14,22.54,51.13,20.34,100-1.1,27.49-18.14,44.53-42.88,44.53-11.54,0-23.08-8.24-26.93-28.58,9.89-57.73,7.69-109.4-4.95-118.2-6.6-5.49-14.84-7.14-26.94-8.24v-11h23.64c7.7,0,9.9,0,15.39-11,10.45-19.24,10.45-19.24,89.61-212.75ZM849.31,111.15c144,20.89,94,124.79,39.58,85.76-6-29.68-26.38-61.57-44-81.91ZM1294,246.94s34.09,29.68,53.88,50.57c-1.65,6.05-7.7,8.8-15.4,8.8h-37.93V607.56c0,3.3-16.49,14.29-44,14.29h-9.34V306.31h-36.83V327.2c0,95.1-4.4,214.39-96.76,295.75l-6.59-5.5c41.23-75.31,48.37-166.56,50-255.62-2.75,3.3-7.14,4.95-12.64,4.95h-50v62.67c17-3.3,35.19-7.15,52.78-10.45l1.65,7.15c-14.85,8.25-33,17.59-54.43,28.58V607.56c-.55,3.3-17,14.84-45.07,14.84h-9.9V481.12c-17,8.25-36.28,16.49-56.62,25.84a20.26,20.26,0,0,1-13.74,13.74l-31.89-64.86c20.89-2.75,58.27-8.8,102.25-16.5V366.78h-24.19l-22.54,24.74-53.32-35.19a104.82,104.82,0,0,1,22-12.64c11.54-33.54,24.74-80.26,36.83-125.89H952.11l-4.4-15.94h48.93c9.35-37.38,17-72,20.89-94.55l72.56,18.14c-2.2,6.59-8.24,12.64-22,11.54-4.39,17.59-10.44,40.13-17,64.87h23.09l27.49-33S1131.32,192,1150,209c-1.1,6-6.59,8.79-14.29,8.79h-89.06c-12.09,46.18-26.38,96.2-37.93,133h32.44V243.64l66.51,7.15c-1.65,7.69-5.49,13.74-19.24,15.39v84.66h.55l22-29.14s24.74,19.24,40.13,34.63V148.54L1202.24,165c29.68-16.49,61-37.93,78.61-52.78L1341.32,170c-6.6,5.5-19.24,5.5-34.08-.55-26.39,5.5-65.42,11-102.8,14.3V290.37h59.37Z"/>
      <path class="cls-1" d="M1542.89,304.66c125.89,44.53,70.91,137.43,24.74,95.1-1.1-26.39-12.1-57.17-24.74-80.81V603.71c0,6-25.29,19.24-47.83,19.24h-12.64V398.11c-21.44,35.73-48.38,68.17-79.16,97.3l-7.15-6c40.13-63.77,64.87-150.08,78.61-233.09h-69.81l-4.4-15.94h81.91V105.65l80.26,7.7c-1.1,8.25-5,13.74-19.79,15.94V240.34h6l28.58-41.78s33,29.13,51.68,48.92c-1.65,6.05-6.6,8.8-14.3,8.8h-72Zm376.56-79.72c-4.39,4.95-11.54,8.8-24.73,10.45-4.4,222.64-14.3,324.34-45.63,357.33-19.24,20.88-42.88,29.13-76.41,29.13,0-19.24-3.3-34.63-11.55-42.88-9.34-9.89-29.68-18.14-54.42-23.09l.55-8.24c24.19,2.74,61,5.49,74.21,5.49,9.9,0,14.85-2.19,20.89-7.69,21.44-19.79,29.14-129.19,33-320.5H1688c-23.09,41.78-50,77-80.26,104.45l-6.6-4.39c24.74-55,48.38-140.19,59.92-218.25l85.21,22.54c-1.65,7.15-8.8,11.55-21.44,11.55a600.82,600.82,0,0,1-29.68,68.71h134.68l33-34.63ZM1735.3,360.18c122.58,75.86,72.56,174.26,27.48,129.74,0-13.2-2.2-26.94-5-40.68-26.38,12.64-62.66,28.58-101.15,44q-5.76,9.9-13.19,13.2l-29.69-64.87s12.1-3.3,16.5-7.7c24.19-33.53,55.52-127,63.22-177.56l77,33c-2.2,5.5-8.25,9.9-19.24,9.35-23.09,44.53-63.77,105-100,144,26.93-1.65,64.31-4.95,102.8-8.8a433.93,433.93,0,0,0-25.29-71.46Z"/>
    </g>
  </g>
</svg>
